# xmcd
#
# Track frame offsets: 
#        150
#        15334
#        27475
#        42342
#        56495
#        69793
#        82807
#        97195
#        111607
#        123898
#        139088
#        150258
#        161534
#        178323
#        192063
#        204199
#        218020
#        232262
#        245160
#        255180
#        268225
#        281611
#        295426
#        308459
#
# Disc length: 4259 seconds
#
# Revision: 0
# Processed by: cddbd v1.5.2PL0 Copyright (c) Steve Scherf et al.
# Submitted via: ExactAudioCopy v1.0b3
#
DISCID=5110a118
DTITLE=Muddy Waters - The Complete Aristocrat and Chess Singles As and Bs 
DTITLE=1947-62 CD 2
DYEAR=2014
DGENRE=Blues
TTITLE0=Honey Bee
TTITLE1=My Fault
TTITLE2=Still A Fool
TTITLE3=Early Morning Blues
TTITLE4=She Moves Me
TTITLE5=All Night Long
TTITLE6=Country Boy
TTITLE7=Please Have Mercy
TTITLE8=Looking For My Baby
TTITLE9=Standing Around Crying
TTITLE10=Gone To Main Street
TTITLE11=She's All Right
TTITLE12=Sad Sad Day
TTITLE13=Who's Gonna Be Your Sweet Man
TTITLE14=Turn The Lamp Down Low
TTITLE15=Mad Love
TTITLE16=Blow Wind Blow
TTITLE17=I'm Your Hoochie Coochie Man
TTITLE18=She's So Pretty
TTITLE19=Just Make Love To Me
TTITLE20=Oh Yeh!
TTITLE21=I'm Ready
TTITLE22=I Don't Know Why
TTITLE23=Lovin' Man
EXTD=
EXTT0=
EXTT1=
EXTT2=
EXTT3=
EXTT4=
EXTT5=
EXTT6=
EXTT7=
EXTT8=
EXTT9=
EXTT10=
EXTT11=
EXTT12=
EXTT13=
EXTT14=
EXTT15=
EXTT16=
EXTT17=
EXTT18=
EXTT19=
EXTT20=
EXTT21=
EXTT22=
EXTT23=
PLAYORDER=
